<mxfile host="app.diagrams.net" modified="2022-01-13T06:02:06.674Z" agent="5.0 (Windows NT 10.0; Win64; x64) AppleWebKit/537.36 (KHTML, like Gecko) Chrome/96.0.4664.110 Safari/537.36 OPR/82.0.4227.43" etag="IgsaJ4z_4yAbJmOU9NjK" version="16.2.4" type="github">
  <diagram id="qiEBtM8c6WKFINXhQ_-S" name="Page-1">
    <mxGraphModel dx="5302" dy="1683" grid="1" gridSize="10" guides="1" tooltips="1" connect="1" arrows="1" fold="1" page="1" pageScale="1" pageWidth="850" pageHeight="1100" math="0" shadow="0">
      <root>
        <mxCell id="0" />
        <mxCell id="1" parent="0" />
        <mxCell id="bv5jGZ5BF9qDTPSGGczE-1" value="App" style="swimlane;fontStyle=1;align=center;verticalAlign=top;childLayout=stackLayout;horizontal=1;startSize=26;horizontalStack=0;resizeParent=1;resizeParentMax=0;resizeLast=0;collapsible=1;marginBottom=0;" parent="1" vertex="1">
          <mxGeometry x="-3910" y="-810" width="160" height="110" as="geometry" />
        </mxCell>
        <mxCell id="bv5jGZ5BF9qDTPSGGczE-2" value="+ filmName: String&#xa;+ filmID: int" style="text;strokeColor=none;fillColor=none;align=left;verticalAlign=top;spacingLeft=4;spacingRight=4;overflow=hidden;rotatable=0;points=[[0,0.5],[1,0.5]];portConstraint=eastwest;" parent="bv5jGZ5BF9qDTPSGGczE-1" vertex="1">
          <mxGeometry y="26" width="160" height="34" as="geometry" />
        </mxCell>
        <mxCell id="bv5jGZ5BF9qDTPSGGczE-3" value="" style="line;strokeWidth=1;fillColor=none;align=left;verticalAlign=middle;spacingTop=-1;spacingLeft=3;spacingRight=3;rotatable=0;labelPosition=right;points=[];portConstraint=eastwest;" parent="bv5jGZ5BF9qDTPSGGczE-1" vertex="1">
          <mxGeometry y="60" width="160" height="8" as="geometry" />
        </mxCell>
        <mxCell id="bv5jGZ5BF9qDTPSGGczE-4" value="+ listFilms():&#xa;+ sortFilms():" style="text;strokeColor=none;fillColor=none;align=left;verticalAlign=top;spacingLeft=4;spacingRight=4;overflow=hidden;rotatable=0;points=[[0,0.5],[1,0.5]];portConstraint=eastwest;" parent="bv5jGZ5BF9qDTPSGGczE-1" vertex="1">
          <mxGeometry y="68" width="160" height="42" as="geometry" />
        </mxCell>
        <mxCell id="bv5jGZ5BF9qDTPSGGczE-5" value="Classname" style="swimlane;fontStyle=1;align=center;verticalAlign=top;childLayout=stackLayout;horizontal=1;startSize=26;horizontalStack=0;resizeParent=1;resizeParentMax=0;resizeLast=0;collapsible=1;marginBottom=0;" parent="1" vertex="1">
          <mxGeometry x="-4160" y="-630" width="160" height="86" as="geometry" />
        </mxCell>
        <mxCell id="bv5jGZ5BF9qDTPSGGczE-6" value="+ field: type" style="text;strokeColor=none;fillColor=none;align=left;verticalAlign=top;spacingLeft=4;spacingRight=4;overflow=hidden;rotatable=0;points=[[0,0.5],[1,0.5]];portConstraint=eastwest;" parent="bv5jGZ5BF9qDTPSGGczE-5" vertex="1">
          <mxGeometry y="26" width="160" height="26" as="geometry" />
        </mxCell>
        <mxCell id="bv5jGZ5BF9qDTPSGGczE-7" value="" style="line;strokeWidth=1;fillColor=none;align=left;verticalAlign=middle;spacingTop=-1;spacingLeft=3;spacingRight=3;rotatable=0;labelPosition=right;points=[];portConstraint=eastwest;" parent="bv5jGZ5BF9qDTPSGGczE-5" vertex="1">
          <mxGeometry y="52" width="160" height="8" as="geometry" />
        </mxCell>
        <mxCell id="bv5jGZ5BF9qDTPSGGczE-8" value="+ method(type): type" style="text;strokeColor=none;fillColor=none;align=left;verticalAlign=top;spacingLeft=4;spacingRight=4;overflow=hidden;rotatable=0;points=[[0,0.5],[1,0.5]];portConstraint=eastwest;" parent="bv5jGZ5BF9qDTPSGGczE-5" vertex="1">
          <mxGeometry y="60" width="160" height="26" as="geometry" />
        </mxCell>
        <mxCell id="bv5jGZ5BF9qDTPSGGczE-9" value="User" style="swimlane;fontStyle=1;align=center;verticalAlign=top;childLayout=stackLayout;horizontal=1;startSize=26;horizontalStack=0;resizeParent=1;resizeParentMax=0;resizeLast=0;collapsible=1;marginBottom=0;" parent="1" vertex="1">
          <mxGeometry x="-3730" y="-630" width="160" height="130" as="geometry" />
        </mxCell>
        <mxCell id="bv5jGZ5BF9qDTPSGGczE-10" value="+ userID: int&#xa;+ userName: String" style="text;strokeColor=none;fillColor=none;align=left;verticalAlign=top;spacingLeft=4;spacingRight=4;overflow=hidden;rotatable=0;points=[[0,0.5],[1,0.5]];portConstraint=eastwest;" parent="bv5jGZ5BF9qDTPSGGczE-9" vertex="1">
          <mxGeometry y="26" width="160" height="34" as="geometry" />
        </mxCell>
        <mxCell id="bv5jGZ5BF9qDTPSGGczE-11" value="" style="line;strokeWidth=1;fillColor=none;align=left;verticalAlign=middle;spacingTop=-1;spacingLeft=3;spacingRight=3;rotatable=0;labelPosition=right;points=[];portConstraint=eastwest;" parent="bv5jGZ5BF9qDTPSGGczE-9" vertex="1">
          <mxGeometry y="60" width="160" height="8" as="geometry" />
        </mxCell>
        <mxCell id="bv5jGZ5BF9qDTPSGGczE-12" value="+ buyFilms():&#xa;+ requestFilms():&#xa;+ buyCredit():" style="text;strokeColor=none;fillColor=none;align=left;verticalAlign=top;spacingLeft=4;spacingRight=4;overflow=hidden;rotatable=0;points=[[0,0.5],[1,0.5]];portConstraint=eastwest;" parent="bv5jGZ5BF9qDTPSGGczE-9" vertex="1">
          <mxGeometry y="68" width="160" height="62" as="geometry" />
        </mxCell>
        <mxCell id="bv5jGZ5BF9qDTPSGGczE-13" value="Subscriber" style="swimlane;fontStyle=1;align=center;verticalAlign=top;childLayout=stackLayout;horizontal=1;startSize=26;horizontalStack=0;resizeParent=1;resizeParentMax=0;resizeLast=0;collapsible=1;marginBottom=0;" parent="1" vertex="1">
          <mxGeometry x="-3890" y="-470" width="160" height="86" as="geometry" />
        </mxCell>
        <mxCell id="bv5jGZ5BF9qDTPSGGczE-14" value="+ field: type" style="text;strokeColor=none;fillColor=none;align=left;verticalAlign=top;spacingLeft=4;spacingRight=4;overflow=hidden;rotatable=0;points=[[0,0.5],[1,0.5]];portConstraint=eastwest;" parent="bv5jGZ5BF9qDTPSGGczE-13" vertex="1">
          <mxGeometry y="26" width="160" height="26" as="geometry" />
        </mxCell>
        <mxCell id="bv5jGZ5BF9qDTPSGGczE-15" value="" style="line;strokeWidth=1;fillColor=none;align=left;verticalAlign=middle;spacingTop=-1;spacingLeft=3;spacingRight=3;rotatable=0;labelPosition=right;points=[];portConstraint=eastwest;" parent="bv5jGZ5BF9qDTPSGGczE-13" vertex="1">
          <mxGeometry y="52" width="160" height="8" as="geometry" />
        </mxCell>
        <mxCell id="bv5jGZ5BF9qDTPSGGczE-16" value="+ rentFilms():" style="text;strokeColor=none;fillColor=none;align=left;verticalAlign=top;spacingLeft=4;spacingRight=4;overflow=hidden;rotatable=0;points=[[0,0.5],[1,0.5]];portConstraint=eastwest;" parent="bv5jGZ5BF9qDTPSGGczE-13" vertex="1">
          <mxGeometry y="60" width="160" height="26" as="geometry" />
        </mxCell>
        <mxCell id="bv5jGZ5BF9qDTPSGGczE-17" value="Non-Subscriber" style="swimlane;fontStyle=1;align=center;verticalAlign=top;childLayout=stackLayout;horizontal=1;startSize=26;horizontalStack=0;resizeParent=1;resizeParentMax=0;resizeLast=0;collapsible=1;marginBottom=0;" parent="1" vertex="1">
          <mxGeometry x="-3580" y="-470" width="160" height="86" as="geometry" />
        </mxCell>
        <mxCell id="bv5jGZ5BF9qDTPSGGczE-18" value=" " style="text;strokeColor=none;fillColor=none;align=left;verticalAlign=top;spacingLeft=4;spacingRight=4;overflow=hidden;rotatable=0;points=[[0,0.5],[1,0.5]];portConstraint=eastwest;" parent="bv5jGZ5BF9qDTPSGGczE-17" vertex="1">
          <mxGeometry y="26" width="160" height="26" as="geometry" />
        </mxCell>
        <mxCell id="bv5jGZ5BF9qDTPSGGczE-19" value="" style="line;strokeWidth=1;fillColor=none;align=left;verticalAlign=middle;spacingTop=-1;spacingLeft=3;spacingRight=3;rotatable=0;labelPosition=right;points=[];portConstraint=eastwest;" parent="bv5jGZ5BF9qDTPSGGczE-17" vertex="1">
          <mxGeometry y="52" width="160" height="8" as="geometry" />
        </mxCell>
        <mxCell id="bv5jGZ5BF9qDTPSGGczE-20" value=" " style="text;strokeColor=none;fillColor=none;align=left;verticalAlign=top;spacingLeft=4;spacingRight=4;overflow=hidden;rotatable=0;points=[[0,0.5],[1,0.5]];portConstraint=eastwest;" parent="bv5jGZ5BF9qDTPSGGczE-17" vertex="1">
          <mxGeometry y="60" width="160" height="26" as="geometry" />
        </mxCell>
        <mxCell id="bv5jGZ5BF9qDTPSGGczE-22" value="Extends" style="endArrow=block;endSize=16;endFill=0;html=1;rounded=0;entryX=0.144;entryY=1.044;entryDx=0;entryDy=0;entryPerimeter=0;exitX=0.665;exitY=-0.006;exitDx=0;exitDy=0;exitPerimeter=0;" parent="1" source="bv5jGZ5BF9qDTPSGGczE-13" target="bv5jGZ5BF9qDTPSGGczE-12" edge="1">
          <mxGeometry width="160" relative="1" as="geometry">
            <mxPoint x="-3880" y="-330" as="sourcePoint" />
            <mxPoint x="-3720" y="-330" as="targetPoint" />
          </mxGeometry>
        </mxCell>
        <mxCell id="bv5jGZ5BF9qDTPSGGczE-23" value="Extends" style="endArrow=block;endSize=16;endFill=0;html=1;rounded=0;entryX=0.792;entryY=1.052;entryDx=0;entryDy=0;entryPerimeter=0;exitX=0.25;exitY=0;exitDx=0;exitDy=0;" parent="1" source="bv5jGZ5BF9qDTPSGGczE-17" target="bv5jGZ5BF9qDTPSGGczE-12" edge="1">
          <mxGeometry width="160" relative="1" as="geometry">
            <mxPoint x="-3740" y="-472.73" as="sourcePoint" />
            <mxPoint x="-3636.96" y="-500.00199999999995" as="targetPoint" />
          </mxGeometry>
        </mxCell>
        <mxCell id="bv5jGZ5BF9qDTPSGGczE-24" value="" style="endArrow=none;html=1;rounded=0;entryX=0.01;entryY=0.182;entryDx=0;entryDy=0;entryPerimeter=0;exitX=0.75;exitY=0;exitDx=0;exitDy=0;" parent="1" source="bv5jGZ5BF9qDTPSGGczE-5" target="bv5jGZ5BF9qDTPSGGczE-1" edge="1">
          <mxGeometry relative="1" as="geometry">
            <mxPoint x="-4070" y="-680" as="sourcePoint" />
            <mxPoint x="-3910" y="-680" as="targetPoint" />
            <Array as="points">
              <mxPoint x="-4040" y="-790" />
            </Array>
          </mxGeometry>
        </mxCell>
        <mxCell id="bv5jGZ5BF9qDTPSGGczE-25" value="" style="endArrow=none;html=1;rounded=0;exitX=0.559;exitY=-0.014;exitDx=0;exitDy=0;exitPerimeter=0;entryX=1;entryY=0.182;entryDx=0;entryDy=0;entryPerimeter=0;" parent="1" source="bv5jGZ5BF9qDTPSGGczE-9" target="bv5jGZ5BF9qDTPSGGczE-1" edge="1">
          <mxGeometry relative="1" as="geometry">
            <mxPoint x="-3881.6" y="-630" as="sourcePoint" />
            <mxPoint x="-3730" y="-790" as="targetPoint" />
            <Array as="points">
              <mxPoint x="-3640" y="-790" />
            </Array>
          </mxGeometry>
        </mxCell>
      </root>
    </mxGraphModel>
  </diagram>
</mxfile>
